<mxfile host="app.diagrams.net" modified="2023-03-24T08:57:20.187Z" agent="Mozilla/5.0 (Windows NT 10.0; Win64; x64) AppleWebKit/537.36 (KHTML, like Gecko) Chrome/111.0.0.0 Safari/537.36" version="21.1.0" etag="x6DAdQmxL5gmVjYMFhgq" type="github">
  <diagram name="Page-1" id="4xSlxrzbtMBdzP0E2tNx">
    <mxGraphModel>
      <root>
        <mxCell id="0" />
        <mxCell id="1" parent="0" />
      </root>
    </mxGraphModel>
  </diagram>
</mxfile>
